<?xml version="1.0" encoding="UTF-8"?>
<svg width="95px" height="43px" viewBox="0 0 95 43" version="1.1" xmlns="http://www.w3.org/2000/svg" xmlns:xlink="http://www.w3.org/1999/xlink">
    <title>pbp-ko</title>
    <g id="Page-1" stroke="none" stroke-width="1" fill="none" fill-rule="evenodd">
        <g id="pbp-ko" fill="#FFFFFF">
            <g id="pinto_logo" transform="translate(0.000000, 14.000000)">
                <path d="M14,5.32907052e-15 C21.7315084,5.32907052e-15 28,6.26790914 28,14 C28,21.7315084 21.7315084,28 14,28 C6.79382644,28 0.86196855,22.5550379 0.0879440885,15.5556203 C0.0879440885,15.5556203 1.90681421,15.5463017 3.34420501,15.5556203 C4.63249854,15.5643564 5.583576,16.1747234 6.45020384,17.7594642 C7.94001165,20.4828189 10.6808387,22.4432149 13.9854397,22.4432149 C18.3482819,22.4432149 21.9615609,19.0728014 22.3459522,14.862551 C22.396622,14.3069307 22.1199767,14 21.5631916,14 L5.32907052e-15,14 C5.32907052e-15,6.26790914 6.26790914,5.32907052e-15 14,5.32907052e-15 M16.2632499,6.06872452 C15.0262085,6.06872452 14.0232964,7.07163658 14.0232964,8.30867793 C14.0232964,9.54571928 15.0262085,10.5486313 16.2632499,10.5486313 C17.5002912,10.5486313 18.5032033,9.54571928 18.5032033,8.30867793 C18.5032033,7.07163658 17.5002912,6.06872452 16.2632499,6.06872452" id="Path-2"></path>
                <path d="M40.7045761,6.06246032 C36.7217164,6.06246032 33.4520001,9.42131957 33.3554286,13.4321792 C33.3057143,15.4978948 33.3554286,26.419616 33.3554286,26.419616 L37.219431,25.5961869 L37.219431,19.7310403 C38.4314318,20.9990411 39.7337183,21.6510415 42.0462912,21.6510415 C45.7582935,21.6510415 48.3931523,18.8824684 48.3931523,13.9424653 L48.3931523,13.7144651 C48.3931523,9.06017649 45.1868646,6.06246032 40.7045761,6.06246032 L40.7045761,6.06246032 Z M44.3594355,13.9710367 C44.3594355,16.88361 43.1034347,18.4253252 40.8188618,18.4253252 C38.5634319,18.4253252 37.135431,16.9693243 37.135431,13.9710367 L37.135431,13.7430366 C37.135431,10.744749 38.6205747,9.23160517 40.7902904,9.23160517 C42.8742917,9.23160517 44.3594355,10.716749 44.3594355,13.7430366 L44.3594355,13.9710367 Z M86.4746619,6.07251747 C90.7860932,6.07251747 94.0266667,9.07023364 94.0266667,13.7245223 L94.0266667,13.7245223 L94.0266667,13.9525224 C94.0266667,18.6633825 90.759236,21.6610987 86.4466619,21.6610987 C82.1569449,21.6610987 78.8883715,18.691954 78.8883715,14.0382368 L78.8883715,14.0382368 L78.8883715,13.8096652 C78.8883715,9.12737653 82.1569449,6.07251747 86.4746619,6.07251747 Z M75.7109409,3.14200134 L75.7109409,6.41343197 L78.9886572,6.41343197 L78.3663711,9.35457667 L75.7109409,9.35457667 L75.7109409,16.5494383 C75.7109409,17.7482962 76.2989413,18.3477252 77.3555133,18.3477252 C77.5955135,18.3477252 78.0812281,18.2854394 78.3549425,18.2220108 L78.3549425,18.2220108 L78.9886572,21.2425841 C78.4063711,21.43687 77.4697991,21.6311558 76.4246556,21.6311558 C73.2840822,21.6311558 71.7195098,20.0322977 71.7195098,16.9202957 L71.7195098,16.9202957 L71.7195098,9.35457667 L70.3892233,9.35457667 L70.3892233,6.41343197 L71.7195098,6.41343197 L71.7195098,3.99228759 L75.7109409,3.14200134 Z M53.9290986,6.9707466 L53.9290986,21.3376128 L49.9565247,21.3376128 L49.9565247,7.81531856 L53.9290986,6.9707466 Z M62.5715041,6.06251746 C66.2543635,6.06251746 69.3383655,7.83280429 69.3383655,11.8299497 L69.3383655,11.8299497 L69.3383655,21.3373842 L65.1983629,21.3373842 L65.1983629,12.42995 C65.1983629,10.4025202 64.3989338,9.43166244 62.5715041,9.43166244 C60.7446458,9.43166244 59.9446453,10.4025202 59.9446453,12.42995 L59.9446453,12.42995 L59.9446453,21.3373842 L55.8052141,21.3373842 L55.8052141,11.8299497 C55.8052141,7.83280429 58.8886446,6.06251746 62.5715041,6.06251746 Z M86.4746619,9.21309087 C84.1906605,9.21309087 82.8203739,10.8690919 82.8203739,13.7245223 L82.8203739,13.7245223 L82.8203739,13.9525224 C82.8203739,16.8073814 84.1335176,18.5205253 86.4746619,18.5205253 C88.7872348,18.5205253 90.1295214,16.8073814 90.1295214,13.9810939 L90.1295214,13.9810939 L90.1295214,13.7810937 C90.1295214,10.9262348 88.7872348,9.21309087 86.4746619,9.21309087 Z M51.9336117,1 C53.2758982,1 54.3033274,1.97085775 54.3033274,3.25542999 C54.3033274,4.54000222 53.2758982,5.5114314 51.9336117,5.5114314 C50.620468,5.5114314 49.5924673,4.54000222 49.5924673,3.25542999 C49.5924673,1.97085775 50.620468,1 51.9336117,1 Z" id="Fill-10"></path>
            </g>
            <path d="M2.77,8 L2.77,5.09 L3.93,5.09 C5.29,5.09 6.43,4.5 6.43,2.98 L6.43,2.94 C6.43,1.45 5.3,0.85 3.93,0.85 L1.9,0.85 L1.9,8 L2.77,8 Z M3.99,4.4 L2.77,4.4 L2.77,1.55 L3.99,1.55 C4.96,1.55 5.56,1.93 5.56,2.94 L5.56,2.98 C5.56,3.9 5.01,4.4 3.99,4.4 Z M8.48,8 L8.48,5.13 C8.48,3.84 9.15,3.51 10.2,3.46 L10.2,2.68 C9.26,2.71 8.81,3.12 8.48,3.71 L8.48,2.77 L7.65,2.77 L7.65,8 L8.48,8 Z M13.58,8.09 C15.07,8.09 16.16,7 16.16,5.42 L16.16,5.34 C16.16,3.77 15.07,2.68 13.59,2.68 C12.11,2.68 11.02,3.78 11.02,5.35 L11.02,5.43 C11.02,6.96 12.09,8.09 13.58,8.09 Z M13.59,7.4 C12.53,7.4 11.88,6.62 11.88,5.43 L11.88,5.35 C11.88,4.15 12.54,3.37 13.59,3.37 C14.63,3.37 15.3,4.15 15.3,5.36 L15.3,5.43 C15.3,6.61 14.64,7.4 13.59,7.4 Z M19.42,8.09 C20.18,8.09 20.91,7.61 21.21,7.1 L21.21,8 L22.04,8 L22.04,0.27 L21.21,0.27 L21.21,3.61 C20.91,3.1 20.37,2.68 19.5,2.68 C18.06,2.68 17.06,3.81 17.06,5.41 L17.06,5.49 C17.06,7.12 18.05,8.09 19.42,8.09 Z M19.51,7.4 C18.63,7.4 17.92,6.77 17.92,5.45 L17.92,5.37 C17.92,4.1 18.54,3.37 19.58,3.37 C20.6,3.37 21.24,4 21.24,5.34 L21.24,5.42 C21.24,6.76 20.48,7.4 19.51,7.4 Z M25.49,8.09 C26.33,8.09 26.91,7.66 27.15,7.17 L27.15,8 L27.98,8 L27.98,2.77 L27.15,2.77 L27.15,5.94 C27.15,6.88 26.45,7.37 25.71,7.37 C24.89,7.37 24.5,6.96 24.5,6.04 L24.5,2.77 L23.67,2.77 L23.67,6.08 C23.67,7.52 24.45,8.09 25.49,8.09 Z M31.83,8.09 C33.09,8.09 34,7.25 34.11,6.12 L33.34,6.12 C33.25,6.97 32.58,7.4 31.84,7.4 C30.83,7.4 30.13,6.72 30.13,5.44 L30.13,5.36 C30.13,4.13 30.86,3.37 31.81,3.37 C32.53,3.37 33.13,3.68 33.26,4.51 L34.08,4.51 C33.92,3.18 32.9,2.68 31.81,2.68 C30.41,2.68 29.27,3.76 29.27,5.36 L29.27,5.44 C29.27,7.06 30.37,8.09 31.83,8.09 Z M36.95,8.07 C37.29,8.07 37.49,8.02 37.66,7.96 L37.66,7.26 C37.48,7.33 37.28,7.37 37.02,7.37 C36.6,7.37 36.37,7.12 36.37,6.61 L36.37,3.47 L37.59,3.47 L37.59,2.77 L36.37,2.77 L36.37,1.58 L35.54,1.58 L35.54,2.77 L34.79,2.77 L34.79,3.47 L35.54,3.47 L35.54,6.69 C35.54,7.51 36,8.07 36.95,8.07 Z M43.49,8 C45.99,8 47.13,6.43 47.13,4.45 L47.13,4.36 C47.13,2.37 45.97,0.85 43.51,0.85 L41.62,0.85 L41.62,8 L43.49,8 Z M43.47,7.29 L42.49,7.29 L42.49,1.55 L43.46,1.55 C45.43,1.55 46.23,2.71 46.23,4.36 L46.23,4.44 C46.23,6.19 45.31,7.29 43.47,7.29 Z M49.83,8.09 C50.6,8.09 51.07,7.83 51.46,7.34 L51.46,8 L52.29,8 L52.29,4.55 C52.29,3.09 51.38,2.68 50.38,2.68 C49.37,2.68 48.42,3.12 48.31,4.31 L49.14,4.31 C49.22,3.67 49.62,3.37 50.34,3.37 C51.14,3.37 51.46,3.72 51.46,4.55 L51.46,4.93 L50.71,4.93 C49.37,4.93 48.09,5.34 48.09,6.55 C48.09,7.62 48.86,8.09 49.83,8.09 Z M49.91,7.43 C49.18,7.43 48.92,7.09 48.92,6.55 C48.92,5.78 49.69,5.52 50.74,5.52 L51.46,5.52 L51.46,6.17 C51.46,6.98 50.79,7.43 49.91,7.43 Z M55.51,8.07 C55.85,8.07 56.05,8.02 56.22,7.96 L56.22,7.26 C56.04,7.33 55.84,7.37 55.58,7.37 C55.16,7.37 54.93,7.12 54.93,6.61 L54.93,3.47 L56.15,3.47 L56.15,2.77 L54.93,2.77 L54.93,1.58 L54.1,1.58 L54.1,2.77 L53.35,2.77 L53.35,3.47 L54.1,3.47 L54.1,6.69 C54.1,7.51 54.56,8.07 55.51,8.07 Z M58.78,8.09 C59.55,8.09 60.02,7.83 60.41,7.34 L60.41,8 L61.24,8 L61.24,4.55 C61.24,3.09 60.33,2.68 59.33,2.68 C58.32,2.68 57.37,3.12 57.26,4.31 L58.09,4.31 C58.17,3.67 58.57,3.37 59.29,3.37 C60.09,3.37 60.41,3.72 60.41,4.55 L60.41,4.93 L59.66,4.93 C58.32,4.93 57.04,5.34 57.04,6.55 C57.04,7.62 57.81,8.09 58.78,8.09 Z M58.86,7.43 C58.13,7.43 57.87,7.09 57.87,6.55 C57.87,5.78 58.64,5.52 59.69,5.52 L60.41,5.52 L60.41,6.17 C60.41,6.98 59.74,7.43 58.86,7.43 Z M68.03,8 C69.46,8 70.38,7.35 70.38,6 L70.38,5.96 C70.38,5.03 69.99,4.5 68.95,4.25 C69.77,3.97 70.03,3.39 70.03,2.74 L70.03,2.7 C70.03,1.29 69.06,0.85 67.73,0.85 L65.58,0.85 L65.58,8 L68.03,8 Z M67.73,3.97 L66.43,3.97 L66.43,1.53 L67.71,1.53 C68.71,1.53 69.18,1.86 69.18,2.67 L69.18,2.71 C69.18,3.59 68.78,3.97 67.73,3.97 Z M68.01,7.32 L66.43,7.32 L66.43,4.65 L67.89,4.65 C69.04,4.65 69.53,5.07 69.53,5.95 L69.53,5.99 C69.53,6.86 69.05,7.32 68.01,7.32 Z M73.05,9.82 L75.94,2.77 L75.09,2.77 L73.64,6.52 L72.04,2.77 L71.15,2.77 L73.2,7.46 L72.21,9.82 L73.05,9.82 Z" id="ProductDataBy" fill-rule="nonzero"></path>
        </g>
    </g>
</svg>